<svg width="667" height="714" viewBox="0 0 667 714" fill="none" xmlns="http://www.w3.org/2000/svg">
<path fill-rule="evenodd" clip-rule="evenodd" d="M136.999 523.127C138.444 523.095 139.869 523.459 141.122 524.18L298.393 614.697C302.183 616.878 303.489 621.721 301.309 625.514C300.582 626.778 299.52 627.817 298.241 628.516L144.828 712.371C140.991 714.468 136.181 713.056 134.085 709.216C133.478 708.103 133.146 706.861 133.118 705.594L129.26 531.223C129.163 526.848 132.628 523.224 136.999 523.127ZM346.978 114.512L549.855 230.657C553.552 232.774 555.833 236.71 555.833 240.972L555.836 285.912C632.203 303.956 667 332.997 667 368.2C667 403.402 632.205 432.442 555.841 450.486L555.833 473.763C555.833 478.047 553.529 481.999 549.802 484.108L346.925 598.875C343.298 600.926 338.863 600.926 335.236 598.875L132.358 484.108C128.632 481.999 126.327 478.047 126.327 473.763L126.326 455.332C37.2167 437.91 0 406.75 0 368.2C0 329.65 37.2159 298.49 126.323 281.068L126.327 240.972C126.327 236.71 128.609 232.774 132.306 230.657L335.183 114.512C338.837 112.42 343.324 112.42 346.978 114.512ZM328.001 470.56C271.23 470.56 222.849 468.146 182.092 463.649L341.08 553.587L507.172 459.635C459.248 466.695 399.837 470.56 328.001 470.56ZM339.425 161.279L339.115 161.439L171.271 257.528C170.133 258.179 169.398 259.347 169.291 260.64L169.278 260.966L169.277 369.316L169.172 369.316C168.571 380.314 158.578 389.062 147.453 389.062C136.327 389.062 126.92 380.314 126.354 369.316L126.326 369.316L126.324 315.554C72.726 328.58 39.5181 346.663 39.5181 366.652C39.5181 406.342 170.445 438.517 331.952 438.517C493.459 438.517 624.387 406.342 624.387 366.652C624.387 349.042 598.613 332.912 555.831 320.415L555.832 369.316L555.767 369.314L555.76 369.803C555.417 381.004 544.694 389.162 533.402 389.162C521.946 389.162 512.974 380.767 512.939 369.315L512.881 369.316L512.883 260.966C512.883 259.654 512.235 258.436 511.166 257.701L510.89 257.528L343.046 161.439C341.93 160.8 340.58 160.746 339.425 161.279ZM550.684 4.11417C551.296 5.22991 551.63 6.47664 551.658 7.74884L555.523 183.12C555.619 187.494 552.154 191.118 547.783 191.214C546.334 191.246 544.904 190.88 543.649 190.155L386.105 99.1189C382.318 96.931 381.021 92.0858 383.208 88.297C383.932 87.0418 384.987 86.0095 386.257 85.3125L539.936 0.977474C543.77 -1.12637 548.582 0.277977 550.684 4.11417Z" fill="url(#paint0_linear_407_2)"/>
<defs>
<linearGradient id="paint0_linear_407_2" x1="572.706" y1="-49.2903" x2="110.316" y2="761.652" gradientUnits="userSpaceOnUse">
<stop stop-color="#21E6E6"/>
<stop offset="1" stop-color="#1D6ED5"/>
</linearGradient>
</defs>
</svg>
