<svg width="318" height="214" viewBox="0 0 318 214" fill="none" xmlns="http://www.w3.org/2000/svg">
<path d="M250.056 26.9427C243.022 19.9058 231.616 19.9058 224.581 26.9427L218.175 33.351C211.14 40.388 211.14 51.7971 218.175 58.834L280.843 121.521C287.877 128.558 299.283 128.558 306.318 121.521L312.724 115.113C319.759 108.076 319.759 96.6667 312.724 89.6298L250.056 26.9427Z" fill="url(#paint0_linear_408_75)"/>
<path d="M312.385 115.361C319.419 108.324 319.419 96.9146 312.385 89.8777L305.978 83.4693C298.944 76.4324 287.538 76.4324 280.503 83.4693L217.836 146.156C210.801 153.193 210.801 164.602 217.836 171.639L224.242 178.048C231.277 185.085 242.683 185.085 249.717 178.048L312.385 115.361Z" fill="url(#paint1_linear_408_75)"/>
<path d="M67.9435 178.048C74.9783 185.085 86.3838 185.085 93.4185 178.048L99.8248 171.639C106.86 164.602 106.86 153.193 99.8249 146.156L37.1574 83.4693C30.1226 76.4324 18.7171 76.4324 11.6824 83.4693L5.27605 89.8776C-1.75868 96.9145 -1.75869 108.324 5.27604 115.361L67.9435 178.048Z" fill="url(#paint2_linear_408_75)"/>
<path d="M5.61525 89.6298C-1.41947 96.6667 -1.41948 108.076 5.61525 115.113L12.0216 121.521C19.0563 128.558 30.4619 128.558 37.4966 121.521L100.164 58.834C107.199 51.797 107.199 40.3879 100.164 33.351L93.7577 26.9427C86.723 19.9058 75.3175 19.9058 68.2827 26.9427L5.61525 89.6298Z" fill="url(#paint3_linear_408_75)"/>
<path d="M160.931 13.6903C163.324 4.0306 173.091 -1.86013 182.748 0.532989L187.994 1.83292C197.65 4.22604 203.539 13.9968 201.147 23.6565L157.396 200.31C155.004 209.969 145.236 215.86 135.579 213.467L130.334 212.167C120.677 209.774 114.788 200.003 117.181 190.344L160.931 13.6903Z" fill="url(#paint4_linear_408_75)"/>
<defs>
<linearGradient id="paint0_linear_408_75" x1="318.584" y1="106.117" x2="-100.876" y2="106.313" gradientUnits="userSpaceOnUse">
<stop stop-color="#21E6E6"/>
<stop offset="1" stop-color="#1D6ED5"/>
</linearGradient>
<linearGradient id="paint1_linear_408_75" x1="318.584" y1="106.117" x2="-100.876" y2="106.313" gradientUnits="userSpaceOnUse">
<stop stop-color="#21E6E6"/>
<stop offset="1" stop-color="#1D6ED5"/>
</linearGradient>
<linearGradient id="paint2_linear_408_75" x1="318.584" y1="106.117" x2="-100.876" y2="106.313" gradientUnits="userSpaceOnUse">
<stop stop-color="#21E6E6"/>
<stop offset="1" stop-color="#1D6ED5"/>
</linearGradient>
<linearGradient id="paint3_linear_408_75" x1="318.584" y1="106.117" x2="-100.876" y2="106.313" gradientUnits="userSpaceOnUse">
<stop stop-color="#21E6E6"/>
<stop offset="1" stop-color="#1D6ED5"/>
</linearGradient>
<linearGradient id="paint4_linear_408_75" x1="318.584" y1="106.117" x2="-100.876" y2="106.313" gradientUnits="userSpaceOnUse">
<stop stop-color="#21E6E6"/>
<stop offset="1" stop-color="#1D6ED5"/>
</linearGradient>
</defs>
</svg>
