<?xml version="1.0" standalone="no"?>
<!DOCTYPE svg PUBLIC "-//W3C//DTD SVG 20010904//EN"
 "http://www.w3.org/TR/2001/REC-SVG-20010904/DTD/svg10.dtd">
<svg version="1.0" xmlns="http://www.w3.org/2000/svg"
 width="722.000000pt" height="722.000000pt" viewBox="0 0 722.000000 722.000000"
 preserveAspectRatio="xMidYMid meet">
<metadata>
Created by potrace 1.11, written by Peter Selinger 2001-2013
</metadata>
<g transform="translate(0.000000,722.000000) scale(0.100000,-0.100000)"
fill="#000000" stroke="none">
<path d="M5595 7144 c-66 -36 -147 -80 -180 -98 -33 -19 -80 -45 -105 -58 -25
-14 -81 -44 -125 -68 -44 -24 -84 -46 -90 -50 -5 -4 -44 -25 -85 -47 -41 -22
-91 -49 -110 -60 -19 -11 -75 -41 -125 -68 -49 -26 -94 -51 -100 -55 -5 -4
-50 -29 -100 -55 -49 -27 -126 -68 -170 -93 -95 -54 -164 -92 -224 -124 -63
-33 -85 -66 -74 -109 8 -30 23 -43 139 -111 71 -43 136 -81 144 -85 8 -3 63
-35 123 -70 59 -34 112 -63 117 -63 6 0 10 -4 10 -10 0 -5 5 -10 11 -10 12 0
145 -76 172 -98 9 -8 17 -11 17 -7 0 4 8 1 18 -7 15 -13 39 -27 142 -85 31
-18 188 -108 230 -133 357 -209 524 -300 548 -300 18 0 38 10 52 25 26 28 26
25 14 465 -2 112 -4 186 -3 230 0 8 -2 87 -5 175 -2 88 -7 302 -11 475 -11
520 -10 510 -31 531 -40 40 -71 34 -199 -37z"/>
<path d="M3560 6015 c-51 -30 -94 -55 -97 -55 -2 0 -28 -16 -58 -35 -30 -19
-55 -31 -55 -27 0 4 -4 2 -8 -3 -4 -6 -20 -17 -37 -25 -16 -8 -32 -18 -35 -21
-3 -3 -41 -25 -85 -49 -44 -24 -89 -48 -100 -54 -11 -6 -22 -13 -25 -16 -5 -5
-16 -12 -99 -58 -25 -14 -86 -49 -136 -77 -125 -72 -433 -248 -475 -272 -19
-11 -62 -35 -95 -54 -33 -18 -61 -37 -63 -41 -2 -4 -8 -8 -13 -8 -5 0 -101
-52 -212 -117 -111 -64 -227 -130 -257 -146 -30 -17 -72 -41 -92 -54 -21 -13
-40 -23 -44 -23 -10 0 -29 -24 -44 -56 -12 -25 -15 -76 -15 -243 1 -116 0
-211 -1 -211 -1 0 -26 -5 -55 -11 -30 -6 -63 -12 -74 -14 -11 -2 -20 -4 -20
-5 0 -1 -7 -3 -15 -5 -8 -1 -44 -10 -80 -20 -36 -9 -69 -18 -75 -19 -5 -2 -30
-8 -55 -15 -25 -7 -46 -13 -47 -12 -2 0 -18 -6 -38 -15 -19 -8 -35 -11 -35 -8
0 4 -6 2 -13 -3 -6 -5 -34 -18 -62 -27 -90 -32 -109 -40 -210 -91 -100 -51
-215 -123 -246 -155 -9 -9 -27 -25 -40 -36 -28 -22 -108 -119 -127 -152 -63
-113 -87 -208 -78 -322 2 -41 7 -84 10 -95 28 -111 83 -203 175 -296 91 -91
166 -142 303 -210 57 -28 111 -54 120 -60 10 -5 25 -9 33 -9 8 0 15 -5 15 -12
0 -6 3 -9 6 -5 4 3 23 -1 43 -9 20 -9 43 -17 51 -19 8 -2 27 -8 43 -14 15 -6
38 -13 50 -16 12 -2 45 -11 72 -19 136 -40 175 -50 237 -60 26 -5 62 -13 80
-20 l33 -11 1 -105 c1 -126 13 -155 83 -191 25 -13 48 -27 49 -31 2 -5 7 -8
12 -8 5 0 50 -24 102 -54 89 -51 131 -74 235 -132 27 -15 73 -41 103 -59 30
-18 118 -68 195 -111 77 -43 154 -87 170 -96 17 -10 47 -26 68 -35 20 -10 37
-21 37 -25 0 -5 4 -8 10 -8 5 0 48 -22 96 -50 48 -27 91 -50 95 -50 5 0 9 -4
9 -10 0 -5 4 -10 9 -10 5 0 52 -24 103 -53 52 -29 101 -57 109 -60 8 -4 28
-15 44 -25 41 -25 119 -69 185 -105 30 -16 60 -33 65 -37 6 -4 42 -24 80 -45
39 -21 78 -45 88 -53 9 -8 17 -11 17 -6 0 5 4 5 8 -1 4 -5 16 -15 27 -21 11
-6 45 -25 75 -41 87 -49 120 -46 226 18 35 22 68 39 73 39 5 0 11 3 13 8 2 4
21 16 43 28 33 17 316 177 480 271 22 12 46 26 54 30 13 6 211 118 321 181 25
14 65 36 89 49 24 12 48 26 55 31 6 5 36 23 66 39 57 31 75 41 244 137 54 31
101 56 104 56 3 0 13 6 21 14 9 7 45 29 81 48 77 42 152 83 200 112 19 12 53
30 75 41 22 11 46 26 53 32 7 7 17 13 22 13 4 0 16 12 26 27 15 23 18 51 20
161 1 142 4 152 51 152 12 0 25 5 28 10 4 6 11 8 16 5 5 -4 15 -3 22 2 6 4 17
8 23 9 6 1 38 10 70 20 33 10 61 18 64 19 12 3 87 27 105 34 11 5 47 19 80 31
266 101 492 262 585 416 58 96 78 174 75 284 -3 82 -8 128 -15 138 -2 1 -3 5
-5 10 -5 21 -26 69 -35 82 -6 8 -13 22 -17 30 -11 27 -76 104 -127 153 -68 63
-192 146 -296 197 -93 45 -312 129 -400 153 -177 49 -205 55 -212 51 -10 -6
-9 -19 -12 266 -1 188 -4 240 -16 258 -13 21 -60 53 -170 114 -19 11 -159 91
-310 178 -151 87 -293 168 -315 180 -22 12 -44 26 -50 30 -5 4 -35 21 -65 37
-30 17 -72 40 -92 52 -77 43 -109 62 -145 82 -21 12 -126 72 -233 134 -186
107 -229 131 -337 191 -27 15 -56 33 -65 42 -10 8 -18 11 -18 7 0 -4 -8 -1
-17 7 -17 13 -44 30 -143 85 -19 11 -61 35 -92 52 -91 52 -119 50 -228 -14z
m232 -484 c37 -23 72 -41 78 -41 5 0 10 -3 10 -7 0 -5 10 -13 23 -18 31 -15
111 -59 117 -65 3 -3 25 -16 50 -29 25 -14 48 -29 52 -35 4 -6 8 -7 8 -3 0 5
12 0 28 -11 15 -10 62 -38 104 -61 43 -23 80 -46 83 -52 4 -5 11 -7 16 -4 5 4
9 1 9 -4 0 -6 4 -11 9 -11 4 0 48 -23 97 -51 49 -29 114 -65 144 -82 30 -17
57 -34 58 -39 2 -4 8 -8 13 -8 6 0 74 -37 152 -81 78 -45 157 -90 175 -100 17
-11 49 -29 70 -40 20 -12 57 -33 82 -47 124 -70 236 -135 244 -142 5 -5 9
-266 10 -592 l1 -583 24 -42 c26 -46 78 -86 126 -97 79 -18 165 5 220 59 57
58 59 68 60 353 1 144 4 264 7 267 6 6 156 -41 248 -77 70 -28 240 -115 261
-134 8 -8 18 -14 22 -14 3 0 28 -21 56 -47 134 -128 131 -254 -8 -380 -25 -24
-54 -45 -63 -48 -10 -4 -18 -11 -18 -16 0 -5 -5 -9 -10 -9 -6 0 -27 -10 -48
-23 -94 -58 -325 -146 -517 -197 -89 -24 -325 -78 -367 -85 -25 -4 -116 -20
-163 -29 -11 -2 -40 -7 -65 -10 -25 -3 -54 -8 -66 -10 -12 -2 -45 -7 -74 -11
-29 -4 -60 -8 -69 -10 -9 -1 -45 -6 -81 -10 -36 -3 -76 -8 -90 -10 -14 -2 -56
-7 -95 -10 -95 -8 -163 -15 -205 -19 -19 -2 -93 -8 -165 -12 -71 -4 -150 -8
-175 -10 -25 -2 -172 -5 -326 -8 -155 -3 -285 -6 -290 -7 -5 -1 -11 -1 -14 0
-3 1 -99 4 -215 6 -200 4 -261 6 -490 21 -102 6 -130 8 -245 19 -36 3 -87 8
-115 10 -27 3 -66 7 -85 10 -19 2 -66 7 -103 9 -38 3 -71 8 -75 10 -4 2 -29 7
-57 10 -27 3 -66 8 -85 11 -19 3 -49 7 -66 9 -16 2 -39 6 -50 9 -10 3 -39 9
-64 12 -25 3 -62 9 -82 14 -21 5 -38 7 -38 4 0 -2 -5 -1 -12 3 -7 4 -23 9 -36
10 -13 2 -56 10 -95 20 -40 9 -79 17 -87 18 -9 1 -20 5 -25 8 -6 3 -30 9 -55
13 -25 4 -49 10 -55 13 -5 4 -18 8 -28 9 -28 5 -210 63 -229 73 -10 6 -22 10
-28 10 -13 0 -79 30 -184 82 -308 153 -376 327 -196 500 33 31 69 60 80 63 11
3 20 10 20 15 0 5 10 12 23 16 12 3 29 12 37 19 25 20 198 92 325 134 97 32
270 81 287 81 2 0 4 -123 3 -272 -1 -311 5 -351 65 -406 48 -44 91 -60 155
-58 66 3 109 21 155 66 60 59 60 58 60 675 0 634 -9 569 85 621 28 15 140 79
250 143 182 105 230 132 305 174 102 57 128 72 153 89 15 11 27 16 27 11 0 -4
4 -3 8 2 4 6 18 16 31 23 63 36 89 51 131 76 25 15 53 29 63 33 9 3 17 9 17
14 0 5 4 9 9 9 10 0 318 172 336 188 6 4 17 11 25 14 8 3 74 40 145 82 151 89
155 89 257 27z m1548 -2971 c0 -5 -17 -18 -37 -28 -21 -11 -117 -64 -213 -119
-96 -55 -206 -117 -245 -138 -38 -21 -73 -43 -77 -49 -4 -6 -8 -7 -8 -2 0 5
-6 4 -12 -2 -11 -8 -514 -295 -635 -362 -21 -12 -65 -37 -98 -56 -33 -19 -68
-38 -77 -41 -10 -3 -18 -9 -18 -14 0 -5 -5 -9 -10 -9 -6 0 -54 -25 -108 -56
-92 -54 -136 -67 -151 -48 -3 5 -22 17 -41 28 -66 34 -145 79 -182 103 -21 12
-40 23 -42 23 -2 0 -59 32 -126 70 -67 39 -124 70 -126 70 -2 0 -21 11 -42 23
-35 23 -68 42 -179 103 -27 15 -77 44 -113 64 -36 20 -85 49 -110 62 -25 14
-110 62 -189 107 -79 44 -148 81 -153 81 -4 0 -8 5 -8 10 0 6 -6 10 -12 10 -7
1 -38 16 -68 35 -30 19 -73 43 -95 53 -22 11 -49 27 -60 35 -20 16 -20 16 4
12 13 -3 56 -7 95 -11 39 -3 89 -7 111 -9 40 -4 101 -9 270 -20 446 -31 1347
-36 1765 -10 36 2 115 6 175 9 61 4 137 8 170 11 99 8 198 16 230 20 17 1 59
6 95 9 66 7 114 13 185 22 22 3 57 7 78 9 21 2 41 6 44 9 9 9 13 7 13 -4z"/>
<path d="M1600 1922 c-37 -14 -58 -54 -54 -107 1 -22 5 -170 8 -330 4 -159 9
-387 11 -505 3 -118 7 -306 9 -418 2 -112 6 -206 9 -209 4 -3 2 -13 -3 -23 -5
-10 -7 -20 -4 -23 3 -2 6 -62 8 -131 3 -113 5 -129 24 -146 41 -38 66 -30 297
95 121 66 222 122 225 125 3 3 30 17 60 33 30 15 82 42 115 60 33 19 92 51
130 72 39 21 96 53 128 71 31 18 57 31 57 27 0 -3 8 1 18 9 9 9 58 37 107 63
50 26 104 56 120 65 17 10 62 34 100 55 236 127 302 165 313 178 28 37 19 92
-21 117 -62 39 -260 150 -268 150 -5 0 -9 4 -9 9 0 5 -6 11 -13 13 -10 2 -253
139 -317 179 -49 29 -312 179 -316 179 -2 0 -23 12 -47 27 -23 15 -52 33 -64
39 -55 30 -88 49 -93 54 -3 3 -21 13 -40 24 -62 33 -125 68 -135 76 -5 4 -30
19 -55 32 -25 14 -65 37 -90 52 -25 15 -53 29 -62 33 -10 3 -18 10 -18 15 0 5
-4 7 -9 3 -5 -3 -13 0 -16 5 -14 22 -79 42 -105 32z"/>
</g>
</svg>
