<svg width="306" height="343" viewBox="0 0 306 343" fill="none" xmlns="http://www.w3.org/2000/svg">
<path d="M183 245.6C180.9 255.9 167.3 262.1 144.4 252.8C120.6 243.2 110.3 220.3 107.7 213.5C121.8 187.1 112 168.8 112 168.8C144.5 166 172.9 204 172.9 204L177.3 222.8C177.7 224.4 178.5 225.8 179.7 226.8C181.8 230.5 184.3 239 183 245.6Z" fill="white"/>
<path d="M107.201 213.8C109.101 210.9 110.301 207.5 111.101 204.2C112.601 197.3 113.101 190.3 113.201 183.3V180.7C112.901 178.1 112.001 175.4 111.001 173C109.701 169.8 114.401 167.8 115.901 171C116.101 171.4 116.101 172.1 116.101 172.5C116.401 186.1 117.001 203.6 108.401 214.9C107.801 215.5 106.601 214.6 107.201 213.8Z" fill="black"/>
<path d="M174 203.8C175.5 204.7 176 205.9 176.2 207.1C176.8 209.5 176.6 212.1 177.2 214.6C177.7 217 179.2 219.3 179.6 221.8C180.1 224.4 181.6 229.9 182.2 232.6C182.4 233.2 182 233.9 181.3 234C180.9 234.1 180.6 234 180.3 233.8C179 232.7 178.4 231.6 177.6 230.2C176.3 227.8 175.4 225.6 174.6 222.9C173.9 220.5 174.2 217.9 173.6 215.4C173.1 213 171.7 210.7 171.2 208.2C170.9 207 170.8 205.7 171.7 204.2C172.3 203.6 173.3 203.4 174 203.8Z" fill="black"/>
<path d="M181.201 230.2C162.101 229.2 146.501 223.2 131.301 196.1C144.101 207.4 159.201 211.7 175.101 213.7L177.201 222.9C177.601 224.5 180.001 229.2 181.201 230.2Z" fill="black"/>
<path d="M180.401 226.5C183.801 232.9 185.801 240.9 183.701 248C182.101 253 177.501 256.7 172.501 258.1C160.901 261.2 147.501 256.3 137.201 250.8C124.501 243.7 115.101 231.8 109.101 218.8C108.701 217.8 110.101 217 110.701 218C112.801 222.2 115.201 226.3 117.901 230C120.601 233.8 123.701 237.3 127.201 240.4C137.401 249.6 151.201 255.3 165.001 255.3C179.201 254.9 184.601 247.4 181.301 233.6C180.801 231.4 180.001 229.1 178.901 227.2C178.301 226.4 179.801 225.5 180.401 226.5Z" fill="black"/>
<path d="M219.1 106.4C220.9 114.8 219.5 120.4 218.7 143.6C209.5 182 210.2 203.3 205.1 208.4C201.1 212.4 177.2 217.6 159.5 213.1C150.5 210.8 142.9 205.6 136.7 201.9C128.9 197.2 123 181.9 117.4 172.6C113 165.3 112.5 174.9 106.8 168.6C98.9003 160 89.4003 142.7 94.1003 112.1C101.7 62.5001 141 56.7001 170.1 62.2001C199.3 67.7001 214.3 84.3001 219.1 106.4Z" fill="white"/>
<path d="M111.7 177.4C108.2 171.6 103.2 166.8 100 160.8C90.3003 142.6 88.3003 120.5 93.9003 100.7C105.6 58.5001 148 52.3001 184.8 64.7001C205.4 71.7001 219.9 89.1001 222 111C222.2 118 220.4 124.5 220.3 131.4C219.8 149.6 214.1 167.1 211.9 184.6C211.4 190.1 211.4 195.9 210.6 201.5C210.4 202.7 210.2 203.8 209.8 205.1C208.9 207.8 206.9 209.7 204.7 211.2C196.4 216.3 187 217.2 177.6 217.7C158 218.5 140.8 212.8 129.1 196.5C128.7 195.9 129.5 195.2 130 195.8C143.1 209.8 158.8 214.3 177.4 213.4C185.3 213 202.2 211.5 205.7 203.8C207.4 197.5 207.4 190.9 208.4 184.3C209.5 176.5 212.5 165.6 214.3 157.9C216.3 149.2 218 140.4 218.1 131.5C218.2 127 218.2 122.5 218.2 118C218.4 113.5 217.5 109.6 216.4 105.3C212.4 88.2001 200.1 74.0001 183.5 67.7001C167.2 61.4001 148.3 59.8001 131.6 65.3001C114.6 70.7001 103 85.3001 98.6003 102.3C96.3003 110.7 95.1003 119.5 94.5003 128.2C94.0003 137 94.9003 146 98.4003 154.2C100.9 160.4 105 165.8 109.8 170.3L114.5 175.2C116.7 177.2 113.3 179.8 111.7 177.4Z" fill="black"/>
<path d="M123.5 145.6C123.5 145.6 120.4 130.6 105.8 132.4C93.2003 134 88.8003 164.2 117.4 172.6" fill="white"/>
<path d="M116.101 159.5C113.801 158.2 112.201 156 112.101 153.3C112.201 151.3 112.501 149 112.001 147C111.701 145.1 109.701 144.6 108.201 144.7C106.601 145 105.601 147 105.301 148.6C105.301 148.7 105.201 149 105.201 149.1C105.101 149.6 104.301 149.6 104.101 149.1C102.801 145.2 105.701 140.9 109.901 141.4C115.801 141.8 116.601 148 115.501 152.7C114.901 154.7 115.701 156.5 116.801 158.2L117.001 158.5C117.501 159.1 116.701 159.9 116.101 159.5Z" fill="black"/>
<path d="M196.1 135C197.6 142.1 200.4 148.7 203.9 154.9C207 162.5 199 169.7 191.9 169.4C191.1 169.4 191 168.3 191.7 168.1C196.2 166.7 200.3 163.7 201 159.1C201.3 157.7 200.9 156.5 200.2 155.3C196.9 149.1 194.9 142 195.4 135C195.4 134.5 196.1 134.5 196.1 135Z" fill="black"/>
<path d="M123 145.7C120.7 139.8 115.7 134.2 109 134.3C108.4 134.2 107.4 134.4 106.8 134.4C105.1 134.5 103.7 135.1 102.4 136.3C96 142.7 97.1 154 102.3 161.1C104.1 163.6 106.4 165.8 109 167.6C111.6 169.4 114.5 170.8 117.6 172C118.3 172.2 118 173.3 117.3 173.2C110.6 171.8 104.2 168.5 99.8 163C93 154.8 91.6 141.1 99.7 133.1C101.5 131.5 104 130.3 106.5 130.3C107.3 130.3 108.5 130.1 109.3 130.3C113.5 130.5 117.5 132.6 120.1 135.9C122.4 138.7 123.7 142.1 124.1 145.5C124.1 146.1 123.2 146.3 123 145.7Z" fill="black"/>
<path d="M188.5 186.4C182.1 192.5 170 187.6 166.8 180.2C166.4 179.3 167.4 178.5 168.2 178.9C169.9 179.8 171.4 180.7 173 181.4C177.6 183.5 182.4 185.2 187.5 184.7C188.5 184.5 189.2 185.7 188.5 186.4Z" fill="black"/>
<path d="M159 265L160.5 259C162.833 261 167.4 265.2 167 266L159 265Z" stroke="black"/>
<path d="M162.5 260L166.397 264.5H158.603L162.5 260Z" fill="black"/>
<path d="M271 340.8L17.7003 335.2C33.3003 283.1 42.0003 237.2 53.7003 230.2C75.9003 216.9 95.9003 214.8 107.8 213.7C110.8 221.1 122.2 245.4 145.9 255C168.8 264.3 182.4 258.1 184.5 247.8C185.8 241.2 181.7 230.4 179.6 226.9C178.4 225.9 177.6 224.4 177.2 222.9L176.4 219.6C178.1 219.2 179.8 218.8 181.5 218.2C199.7 221.4 227.3 236.4 233.2 244.8C240.3 254.9 250.1 280.2 249.7 294.1C249.1 316.7 271 340.8 271 340.8Z" fill="url(#paint0_linear_4_166)"/>
<path d="M273.4 341.9C198 340.8 92.0003 339.7 17.7003 337.8C16.3003 337.8 15.2003 336.6 15.2003 335.2C23.3003 307.9 29.8003 280.4 38.5003 253.2C39.6003 249.8 40.8003 246.5 42.2003 243.1C44.6003 237.8 47.0003 231.9 52.0003 228.3C54.9003 226.6 58.0003 224.9 61.0003 223.4C75.5003 216.2 91.6003 212.5 107.6 211.2C108.8 211.1 109.8 211.8 110.2 212.8C117.8 231 131.6 247.9 150.9 254.2C160.4 257.5 177.3 260.3 181.8 248.5C183.3 242.8 181.1 236.8 179.1 231.4C178.6 230.3 178.1 229.2 177.6 228.3L178.1 228.9C176.2 227.3 175 224.6 174.6 222.2L174.1 220.2C173.8 218.8 174.7 217.4 176.1 217.1C177.8 216.7 179.4 216.3 181 215.8C195 216.8 223.7 231 233.6 241C239.4 247.7 242.7 256.4 246 264.5C248.4 271 250.5 277.7 251.7 284.6C252.2 287.2 252.5 289.9 252.5 292.6C252.4 296.6 252.7 300.7 253.8 304.7C257.1 317.2 264.4 328.7 272.7 338.6L272.9 338.8L273 338.9C273 338.9 272.9 338.8 273.3 339.2C273.6 340 273.7 341.2 273.4 341.9ZM268.7 339.8C268.6 340.1 268.4 340.5 268.5 341C268.5 341.5 268.7 341.9 268.9 342.2C269.2 342.6 269.1 342.4 269.1 342.5L269 342.4C268.3 341.4 266.9 339.4 266.2 338.3C258 325.4 249.9 311.1 249.6 295.4C249.8 285.1 246.6 275.2 243.2 265.7C240.8 259.3 238 253.1 234.4 247.3C233.5 245.9 232.6 244.5 231.4 243.3C227.8 239.8 223.4 237 219 234.5C207.3 228 194.6 222.6 181.3 220.9L182.5 220.8C180.7 221.4 178.9 221.8 177.1 222.2L179.1 219.1C179.7 221.2 179.8 223.7 181.5 225.1C182.6 226.4 183.2 228.1 183.9 229.5C185.5 233.3 186.6 237.2 187.3 241.3C189.1 251.1 183.3 259.2 173.7 261.4C165.6 263.3 157.1 261.6 149.4 259.1C128.7 252.5 113.7 234.4 105.6 214.8L108.2 216.4C92.4003 216.2 76.7003 219.3 62.4003 226.1C59.3003 227.6 56.1003 229.3 53.2003 231.1C49.1003 234.4 47.1003 239.6 45.0003 244.3C38.5003 260.7 34.7003 277.9 30.4003 294.9C27.4003 306.9 23.4003 323.9 20.4003 336L18.0003 332.7C90.4003 334.2 195.1 337.4 268.7 339.8Z" fill="black"/>
<path d="M62.1004 340.4C62.1004 340.4 60.8004 308 59.5004 302" stroke="black" stroke-width="5.1512" stroke-miterlimit="10" stroke-linecap="round" stroke-linejoin="round"/>
<path d="M239.3 340.4C239.3 340.4 236.3 320.3 236.3 316.8C236.3 313.4 238.9 302.2 239.3 292.4" stroke="black" stroke-width="5.1512" stroke-miterlimit="10" stroke-linecap="round" stroke-linejoin="round"/>
<path d="M102 175.5C106.171 182.735 111.067 195.835 111.473 196.927C111.493 196.981 111.505 197.029 111.516 197.086C111.715 198.18 113.285 198.184 113.484 197.089L113.5 197L114.477 173.541C114.492 173.203 114.334 172.882 114.06 172.685L107.51 168.007C107.503 168.002 107.5 168 107.494 167.995C107.289 167.841 102.269 164.028 100 160.5C96.9519 155.76 95.1367 151.701 96 146.5C96.6676 142.478 96.5595 137.161 100.5 134.5C103.592 132.412 107.029 131.338 111 132C114.226 132.538 117.395 135.291 119.497 137.52C120.207 138.272 121.712 137.653 121.63 136.622C121.37 133.319 121.128 128.558 121.5 125C122.213 118.17 123.009 114.182 126 108C128.147 103.564 128.925 100.272 133 97.5C134.444 96.5178 135.381 96.154 137 95.5C140.338 94.1518 142.441 94.0458 146 93.5C162.215 91.0132 171.127 98.9928 187.5 100C197.194 100.596 213.89 98.8873 216.995 98.5549C217.314 98.5208 217.594 98.3347 217.752 98.0556L231.155 74.3759C231.614 73.5652 230.803 72.5887 229.914 72.8671C227.054 73.7627 222.402 75.027 219 75C215.05 74.9687 210.285 73.0849 207.202 71.6389C206.438 71.2807 206.743 70.2466 207.584 70.32V70.32C207.994 70.3559 208.37 70.0664 208.394 69.6551C208.768 63.0572 197.046 70.3903 197.035 70.3836C196.648 70.1379 192.201 62.5342 184 60C177.562 58.0106 167.111 57.0547 166.526 57.0023C166.507 57.0006 166.496 56.9999 166.477 56.9993C165.886 56.9801 154.235 56.5778 148 54.5C140.362 51.9548 136.042 49.8687 128 49.5C120.717 49.1661 116.027 48.7515 109.5 52C102.7 55.3843 100.307 59.7441 96 66C86.1033 80.3748 86.9895 110.157 86.9999 110.497C87.0002 110.508 87 110.505 87 110.516C87.0017 119.497 87.9829 132.599 91.5 146C94.6082 157.843 95.7034 164.579 101.751 175.069L102 175.5Z" fill="#020202"/>
<path d="M224.004 62.7361L194.961 85.4652C194.251 86.0208 194.581 87.1581 195.478 87.2478L212.314 88.9314C212.727 88.9727 213.123 88.7547 213.308 88.3836L225.515 63.9708C225.991 63.017 224.844 62.0789 224.004 62.7361Z" fill="#020202"/>
<path d="M231.728 64.0851L199.004 84.3969C198.184 84.906 198.49 86.167 199.452 86.2434L218.423 87.7479C218.793 87.7773 219.15 87.5988 219.348 87.2844L233.102 65.4681C233.667 64.5704 232.63 63.5255 231.728 64.0851Z" fill="#020202"/>
<path d="M213.5 62L186.587 81.6011C185.767 82.1103 186.073 83.3713 187.035 83.4476L206.006 84.9522C206.345 84.9791 206.671 84.8324 206.876 84.5671C206.915 84.5167 206.943 84.4588 206.966 84.3994L215.465 62.5892C215.488 62.5299 215.519 62.4736 215.547 62.4167C215.961 61.5928 214.373 61.4582 213.5 62Z" fill="#020202"/>
<path d="M214.101 54.936L181.376 75.2478C180.556 75.757 180.862 77.018 181.824 77.0943L200.795 78.5989C201.166 78.6283 201.522 78.4497 201.72 78.1353L215.474 56.319C216.04 55.4214 215.002 54.3765 214.101 54.936Z" fill="#020202"/>
<path d="M103.309 42.9336L95.6486 67.5477C95.4412 68.214 95.9629 68.8825 96.6597 68.8433L104.74 68.3881C105.276 68.3579 105.693 67.9094 105.684 67.3723L105.264 43.2134C105.244 42.0776 103.647 41.849 103.309 42.9336Z" fill="#020202"/>
<path d="M112.091 42.6461L105.958 62.5078C105.753 63.172 106.271 63.8376 106.966 63.8015L113.438 63.4652C113.976 63.4373 114.395 62.988 114.386 62.4492L114.046 42.9237C114.027 41.7867 112.427 41.5595 112.091 42.6461Z" fill="#020202"/>
<path d="M120.859 41.8179L116.622 62.1683C116.48 62.8488 117.059 63.4627 117.746 63.3615L124.158 62.4181C124.691 62.3396 125.066 61.8529 125.006 61.3174L122.832 41.9104C122.705 40.7802 121.091 40.7045 120.859 41.8179Z" fill="#020202"/>
<path d="M198.84 50.4198L169.797 73.1489C169.088 73.7044 169.417 74.8417 170.314 74.9314L187.151 76.6151C187.564 76.6564 187.959 76.4384 188.145 76.0672L200.351 51.6545C200.828 50.7007 199.68 49.7625 198.84 50.4198Z" fill="#020202"/>
<path d="M182.004 48.7361L152.961 71.4652C152.251 72.0208 152.581 73.1581 153.478 73.2478L170.314 74.9314C170.727 74.9727 171.123 74.7547 171.308 74.3836L183.515 49.9708C183.991 49.017 182.844 48.0789 182.004 48.7361Z" fill="#020202"/>
<path d="M191.004 51.7361L161.961 74.4652C161.251 75.0208 161.581 76.1581 162.478 76.2478L179.314 77.9314C179.727 77.9727 180.123 77.7547 180.308 77.3836L192.515 52.9708C192.991 52.017 191.844 51.0789 191.004 51.7361Z" fill="#020202"/>
<path d="M167.98 47.3955L138.938 70.1246C138.228 70.6802 138.558 71.8175 139.454 71.9072L156.291 73.5908C156.704 73.6321 157.099 73.4141 157.285 73.043L169.477 48.6594C169.954 47.7056 168.82 46.7383 167.98 47.3955Z" fill="#020202"/>
<path d="M155.539 45.1348L131 67.6C130.29 68.1555 130.62 69.2928 131.517 69.3825L148.353 71.0662C148.74 71.1048 149.111 70.9163 149.309 70.5877C149.336 70.5426 149.355 70.4931 149.371 70.4428L157.015 46.2103C157.031 46.16 157.052 46.111 157.072 46.0625C157.458 45.146 156.357 44.4942 155.539 45.1348Z" fill="#020202"/>
<path d="M149.004 45.7361L119.961 68.4652C119.251 69.0208 119.581 70.1581 120.478 70.2478L137.314 71.9314C137.727 71.9727 138.123 71.7547 138.308 71.3836L150.515 46.9708C150.991 46.017 149.844 45.0789 149.004 45.7361Z" fill="#020202"/>
<path d="M161.661 46.8862L142.181 69.5567C141.668 70.1537 142.014 71.0818 142.792 71.1976L154.085 72.8769C154.564 72.9481 155.025 72.6656 155.18 72.2064L163.367 47.8566C163.717 46.8156 162.376 46.0532 161.661 46.8862Z" fill="#020202"/>
<path d="M174.049 47.2454L154.57 69.9159C154.057 70.5128 154.402 71.4409 155.181 71.5567L166.474 73.236C166.953 73.3073 167.414 73.0248 167.568 72.5656L175.756 48.2158C176.106 47.1748 174.765 46.4124 174.049 47.2454Z" fill="#020202"/>
<path d="M187.538 47.6481L168.058 70.3186C167.545 70.9155 167.891 71.8436 168.67 71.9594L179.962 73.6387C180.441 73.71 180.903 73.4275 181.057 72.9683L189.244 48.6185C189.594 47.5775 188.254 46.8151 187.538 47.6481Z" fill="#020202"/>
<path d="M118.661 41.8862L99.1809 64.5567C98.6679 65.1537 99.0138 66.0818 99.7923 66.1976L111.085 67.8769C111.564 67.9481 112.025 67.6656 112.18 67.2064L120.367 42.8566C120.717 41.8156 119.376 41.0532 118.661 41.8862Z" fill="#020202"/>
<path d="M108.714 43.9682L94.509 74.0929C94.2436 74.6558 94.5513 75.3218 95.152 75.4846L103.387 77.716C103.951 77.8689 104.526 77.5072 104.632 76.9323L110.602 44.5762C110.815 43.4242 109.214 42.9086 108.714 43.9682Z" fill="#020202"/>
<path d="M146.004 41.7361L116.961 64.4652C116.251 65.0208 116.581 66.1581 117.478 66.2478L134.314 67.9314C134.727 67.9727 135.123 67.7547 135.308 67.3836L147.515 42.9708C147.991 42.017 146.844 41.0789 146.004 41.7361Z" fill="#020202"/>
<path d="M133.004 40.7361L103.961 63.4652C103.251 64.0208 103.581 65.1581 104.478 65.2478L121.314 66.9314C121.727 66.9727 122.123 66.7547 122.308 66.3836L134.515 41.9708C134.991 41.017 133.844 40.0789 133.004 40.7361Z" fill="#020202"/>
<path d="M209.583 48.4566L180.54 71.1857C179.831 71.7413 180.16 72.8786 181.057 72.9683L197.894 74.6519C198.307 74.6932 198.702 74.4752 198.888 74.1041L211.094 49.6913C211.571 48.7375 210.423 47.7994 209.583 48.4566Z" fill="#020202"/>
<path d="M199.004 56.7361L169.961 79.4652C169.251 80.0208 169.581 81.1581 170.478 81.2478L187.314 82.9314C187.727 82.9727 188.123 82.7547 188.308 82.3836L200.515 57.9708C200.991 57.017 199.844 56.0789 199.004 56.7361Z" fill="#020202"/>
<path d="M220.73 58.6229L191.688 81.352C190.978 81.9076 191.307 84.6743 192.204 84.764L209.041 86.4476C209.454 86.4889 209.849 86.2709 210.035 85.8998L222.241 61.487C222.718 60.5332 221.57 57.9657 220.73 58.6229Z" fill="#020202"/>
<path d="M120.859 41.8179L116.622 62.1683C116.48 62.8488 117.059 63.4627 117.746 63.3615L124.158 62.4181C124.691 62.3396 125.066 61.8529 125.006 61.3174L122.832 41.9104C122.705 40.7802 121.091 40.7045 120.859 41.8179Z" fill="#020202"/>
<path d="M135.335 45.2023L106.293 67.9314C105.583 68.487 105.912 69.6243 106.809 69.714L123.646 71.3976C124.059 71.4389 124.454 71.2209 124.64 70.8498L136.846 46.437C137.323 45.4832 136.175 44.5451 135.335 45.2023Z" fill="#020202"/>
<path d="M173.5 124.4C175.7 124.7 177.4 122.4 176.6 120.2C176.2 119 175.5 117.9 174.4 117.2C171 115.1 158.3 114.9 151.6 119.7C145.6 124.1 163.5 123 173.5 124.4Z" fill="black"/>
<path d="M201.2 125.5C199.4 125.5 198.3 123.2 199.2 121.3C199.7 120.3 200.4 119.4 201.4 118.9C204.5 117.4 212.8 118.3 216.5 123.4C219.8 127.9 209.5 125.4 201.2 125.5Z" fill="black"/>
<path d="M169.8 137.3C164.7 135.1 158.9 135.7 153.6 136.9C153 137.1 152.6 136.3 153.1 135.9C157.7 132.1 166.4 131.6 170.1 136.8C170.4 137 170.2 137.4 169.8 137.3Z" fill="black"/>
<path d="M209.1 139.4C206.7 137.7 203.2 138 200.4 138.3C199.4 138.4 198.4 138.6 197.3 138.9C197 139 196.7 138.5 196.9 138.3L197.1 138.1C199.6 135.5 203.5 134.9 206.9 136.2C208.1 136.7 209.3 137.4 209.9 138.8C210.2 139.3 209.5 139.8 209.1 139.4Z" fill="black"/>
<path d="M132.52 313.5C132.52 327.031 121.551 337 108.02 337C94.4891 337 83 327.031 83 313.5C83 299.969 91.469 289 105 289C118.531 289 132.52 299.969 132.52 313.5Z" fill="black"/>
<g opacity="0.8" clip-path="url(#clip0_4_166)" filter="url(#filter0_d_4_166)">
<path d="M114.182 306.845C113.584 306.309 112.653 306.347 112.1 306.929L111.598 307.459C111.046 308.04 111.082 308.946 111.68 309.481L117 314.25C117.598 314.785 118.529 314.748 119.082 314.166L119.584 313.636C120.136 313.054 120.1 312.149 119.503 311.613L114.182 306.845Z" fill="url(#paint1_linear_4_166)"/>
<path d="M119.557 313.657C120.109 313.075 120.073 312.169 119.476 311.634L118.932 311.147C118.334 310.611 117.403 310.649 116.85 311.231L111.932 316.414C111.38 316.995 111.417 317.901 112.014 318.436L112.558 318.924C113.155 319.459 114.087 319.421 114.639 318.84L119.557 313.657Z" fill="url(#paint2_linear_4_166)"/>
<path d="M99.7893 319.44C100.387 319.976 101.318 319.938 101.87 319.356L102.373 318.826C102.925 318.244 102.889 317.339 102.291 316.804L96.9706 312.035C96.3733 311.5 95.4415 311.537 94.8894 312.119L94.3866 312.649C93.8345 313.231 93.8712 314.136 94.4685 314.672L99.7893 319.44Z" fill="url(#paint3_linear_4_166)"/>
<path d="M94.4135 312.628C93.8614 313.21 93.8981 314.116 94.4954 314.651L95.0393 315.138C95.6366 315.674 96.5684 315.636 97.1205 315.054L102.039 309.871C102.591 309.289 102.554 308.384 101.957 307.849L101.413 307.361C100.816 306.826 99.8839 306.864 99.3318 307.445L94.4135 312.628Z" fill="url(#paint4_linear_4_166)"/>
<path d="M106.858 306.087C107.023 305.313 107.802 304.813 108.598 304.971L109.031 305.057C109.827 305.215 110.34 305.971 110.175 306.745L107.168 320.912C107.004 321.686 106.225 322.186 105.428 322.028L104.996 321.942C104.199 321.784 103.687 321.028 103.851 320.254L106.858 306.087Z" fill="url(#paint5_linear_4_166)"/>
</g>
<defs>
<filter id="filter0_d_4_166" x="89.667" y="304.481" width="34.6659" height="26.037" filterUnits="userSpaceOnUse" color-interpolation-filters="sRGB">
<feFlood flood-opacity="0" result="BackgroundImageFix"/>
<feColorMatrix in="SourceAlpha" type="matrix" values="0 0 0 0 0 0 0 0 0 0 0 0 0 0 0 0 0 0 127 0" result="hardAlpha"/>
<feOffset dy="4"/>
<feGaussianBlur stdDeviation="2"/>
<feComposite in2="hardAlpha" operator="out"/>
<feColorMatrix type="matrix" values="0 0 0 0 0 0 0 0 0 0 0 0 0 0 0 0 0 0 0.25 0"/>
<feBlend mode="normal" in2="BackgroundImageFix" result="effect1_dropShadow_4_166"/>
<feBlend mode="normal" in="SourceGraphic" in2="effect1_dropShadow_4_166" result="shape"/>
</filter>
<linearGradient id="paint0_linear_4_166" x1="144.35" y1="213.7" x2="144.35" y2="340.8" gradientUnits="userSpaceOnUse">
<stop stop-color="#1CB9BD"/>
<stop offset="1" stop-color="#186CA5"/>
</linearGradient>
<linearGradient id="paint1_linear_4_166" x1="120.034" y1="312.903" x2="85.7674" y2="314.305" gradientUnits="userSpaceOnUse">
<stop stop-color="#21E6E6"/>
<stop offset="1" stop-color="#1D6ED5"/>
</linearGradient>
<linearGradient id="paint2_linear_4_166" x1="120.034" y1="312.903" x2="85.7674" y2="314.305" gradientUnits="userSpaceOnUse">
<stop stop-color="#21E6E6"/>
<stop offset="1" stop-color="#1D6ED5"/>
</linearGradient>
<linearGradient id="paint3_linear_4_166" x1="120.034" y1="312.903" x2="85.7674" y2="314.305" gradientUnits="userSpaceOnUse">
<stop stop-color="#21E6E6"/>
<stop offset="1" stop-color="#1D6ED5"/>
</linearGradient>
<linearGradient id="paint4_linear_4_166" x1="120.034" y1="312.903" x2="85.7674" y2="314.305" gradientUnits="userSpaceOnUse">
<stop stop-color="#21E6E6"/>
<stop offset="1" stop-color="#1D6ED5"/>
</linearGradient>
<linearGradient id="paint5_linear_4_166" x1="120.034" y1="312.903" x2="85.7674" y2="314.305" gradientUnits="userSpaceOnUse">
<stop stop-color="#21E6E6"/>
<stop offset="1" stop-color="#1D6ED5"/>
</linearGradient>
<clipPath id="clip0_4_166">
<rect width="26" height="17" fill="white" transform="translate(93.667 305.532) rotate(-2.31652)"/>
</clipPath>
</defs>
</svg>
