<?xml version="1.0" standalone="no"?>
<!DOCTYPE svg PUBLIC "-//W3C//DTD SVG 20010904//EN"
 "http://www.w3.org/TR/2001/REC-SVG-20010904/DTD/svg10.dtd">
<svg version="1.0" xmlns="http://www.w3.org/2000/svg"
 width="1272.000000pt" height="1272.000000pt" viewBox="0 0 1272.000000 1272.000000"
 preserveAspectRatio="xMidYMid meet">
<metadata>
Created by potrace 1.14, written by Peter Selinger 2001-2017
</metadata>
<g transform="translate(0.000000,1272.000000) scale(0.100000,-0.100000)"
fill="#000000" stroke="none">
<path d="M6990 10621 c-157 -35 -273 -102 -384 -222 -122 -132 -129 -152 -330
-964 -215 -868 -472 -1908 -652 -2635 -74 -300 -195 -788 -269 -1085 -237
-957 -443 -1789 -562 -2265 -102 -409 -116 -478 -121 -571 -5 -129 17 -232 78
-355 68 -138 210 -271 357 -332 82 -35 360 -102 448 -108 134 -11 291 29 422
107 72 43 188 160 232 233 50 83 75 161 146 450 35 144 134 545 220 891 86
347 205 828 265 1070 105 426 215 867 510 2060 78 314 183 741 235 950 52 209
178 718 281 1130 172 691 187 759 191 862 10 203 -54 376 -189 519 -119 125
-210 172 -455 234 -198 50 -302 58 -423 31z"/>
<path d="M3080 9754 c-73 -16 -188 -67 -252 -113 -75 -52 -2672 -2651 -2711
-2712 -102 -160 -139 -353 -101 -537 20 -97 55 -178 116 -267 33 -50 428 -450
1350 -1371 1118 -1117 1313 -1307 1373 -1342 218 -127 468 -136 695 -25 92 45
102 53 306 257 227 226 258 269 312 419 23 64 26 87 26 217 0 131 -2 152 -27
225 -56 168 -27 136 -1004 1115 -497 498 -903 910 -903 915 0 5 409 419 909
920 693 694 917 924 943 970 130 220 136 499 16 715 -46 83 -122 171 -280 326
-198 193 -295 255 -457 290 -83 17 -226 16 -311 -2z"/>
<path d="M9345 9755 c-38 -9 -117 -38 -175 -67 -104 -50 -107 -53 -306 -252
-219 -219 -261 -276 -309 -419 -49 -147 -44 -332 13 -477 59 -150 62 -154
1008 -1099 l895 -894 -904 -906 c-497 -498 -918 -926 -934 -951 -87 -129 -123
-250 -123 -405 0 -127 24 -225 81 -338 38 -74 63 -102 253 -292 222 -221 269
-257 393 -300 232 -81 480 -44 670 100 32 24 637 624 1346 1334 l1287 1291 0
467 0 468 -1317 1316 c-1223 1220 -1323 1318 -1388 1352 -147 75 -341 104
-490 72z"/>
</g>
</svg>
